# Blender v2.79 (sub 0) OBJ File: 'Cable.blend'
# www.blender.org
mtllib green.mtl
o Cable_Cube.006
v -0.000000 -0.000000 0.062500
v -0.000000 0.187500 0.062500
v -0.000000 -0.000000 -0.125000
v -0.000000 0.187500 -0.125000
v 0.062500 -0.000000 0.062500
v 0.062500 0.187500 0.062500
v 0.062500 -0.000000 -0.125000
v 0.062500 0.187500 -0.125000
v 0.062500 0.023438 0.015625
v -0.000000 0.023438 0.015625
v 0.062500 0.023438 -0.078125
v -0.000000 0.023438 -0.078125
v -0.000000 -0.000000 -0.078125
v 0.062500 -0.000000 -0.078125
v -0.000000 -0.000000 0.015625
v 0.062500 0.140625 -0.101562
v 0.000000 0.140625 -0.101562
v 0.062500 0.046875 -0.101562
v 0.000000 0.046875 -0.101562
v 0.062500 0.046875 -0.125000
v -0.000000 0.140625 -0.125000
v -0.000000 0.046875 -0.125000
v 0.062500 0.164063 -0.078125
v 0.000000 0.164062 -0.078125
v 0.062500 0.164062 0.015625
v 0.000000 0.164062 0.015625
v -0.000000 0.187500 0.015625
v 0.062500 0.187500 0.015625
v 0.062500 -0.000000 0.015625
v 0.062500 0.140625 -0.125000
v 0.062500 0.046875 0.039062
v 0.000000 0.046875 0.039062
v -0.000000 0.046875 0.062500
v -0.000000 0.187500 -0.078125
v 0.062500 0.187500 -0.078125
v 0.062500 0.140625 0.039063
v 0.062500 0.140625 0.062500
v 0.000000 0.140625 0.039063
v 0.062500 0.046875 0.062500
v -0.000000 0.140625 0.062500
vt 0.749950 0.125075
vt 0.874925 0.749949
vt 0.749950 0.874924
vt 0.000050 0.750050
vt 0.374950 1.000000
vt 0.000050 1.000000
vt 0.874925 0.749950
vt 0.250050 0.874925
vt 0.125075 0.749949
vt 0.374950 0.250025
vt 0.000050 0.000050
vt 0.374950 0.000050
vt 0.000012 0.625088
vt 0.249988 0.999988
vt 0.000013 0.999988
vt 0.999988 0.999988
vt 0.750012 0.625088
vt 0.999988 0.625088
vt 0.625071 0.750000
vt 0.999929 0.250071
vt 0.999929 0.750000
vt 0.250004 0.000066
vt 0.374996 0.374996
vt 0.250004 0.374996
vt 0.000035 0.625035
vt 0.374965 0.750027
vt 0.000035 0.750027
vt 0.750012 0.625088
vt 0.999987 0.999987
vt 0.750013 0.999987
vt 0.999965 0.250035
vt 0.625035 0.375027
vt 0.625035 0.250035
vt 0.625035 0.750027
vt 0.999965 0.625035
vt 0.999965 0.750026
vt 0.374950 0.750050
vt 0.000050 1.000000
vt 0.000050 0.750050
vt 0.000050 0.250025
vt 0.374950 0.000050
vt 0.374950 0.250025
vt 0.249987 0.999988
vt 0.000012 0.625088
vt 0.249987 0.625088
vt 0.625004 0.625066
vt 0.749996 0.999996
vt 0.625004 0.999996
vt 0.000035 0.375027
vt 0.374965 0.250035
vt 0.374965 0.375026
vt 0.000071 0.750000
vt 0.374929 0.250071
vt 0.374929 0.750000
vt 0.250035 0.000106
vt 0.749965 0.374965
vt 0.250035 0.374965
vt 0.374996 0.999996
vt 0.374996 0.625066
vt 0.749965 0.999964
vt 0.250035 0.625106
vt 0.749965 0.625106
vt 0.749996 0.374996
vt 0.625004 0.000066
vt 0.749996 0.000066
vt 0.000100 0.250050
vt 0.000100 0.000100
vt 0.125075 0.250050
vt 0.250050 0.000100
vt 0.250050 0.125075
vt 0.749950 0.000100
vt 0.999899 0.000100
vt 0.000101 0.999899
vt 0.000101 0.749949
vt 0.125076 0.749949
vt 0.874924 0.250050
vt 0.999899 0.250050
vt 0.250051 0.874924
vt 0.250050 0.999899
vt 0.999900 0.999899
vt 0.749950 0.999899
vt 0.999900 0.749949
vt 0.374950 0.750050
vt 0.749950 0.000100
vt 0.999900 0.000100
vt 0.749950 0.125075
vt 0.999900 0.250050
vt 0.874925 0.250050
vt 0.999900 0.749950
vt 0.999900 0.999900
vt 0.000100 0.000100
vt 0.250050 0.000100
vt 0.250050 0.125075
vt 0.749950 0.874925
vt 0.749950 0.999900
vt 0.125075 0.250050
vt 0.000100 0.250050
vt 0.000100 0.999900
vt 0.000100 0.749950
vt 0.250050 0.999900
vt 0.000050 0.250025
vt 0.249988 0.625088
vt 0.625071 0.250071
vt 0.374996 0.000066
vt 0.374965 0.625035
vt 0.999987 0.625087
vt 0.999965 0.375027
vt 0.625035 0.625035
vt 0.374950 1.000000
vt 0.000050 0.000050
vt 0.000071 0.250071
vt 0.749965 0.000106
vt 0.250035 0.999965
vt 0.625004 0.374996
vn -1.0000 0.0000 0.0000
vn 0.0000 0.0000 -1.0000
vn 1.0000 -0.0000 0.0000
vn 0.0000 0.0000 1.0000
vn 0.0000 -1.0000 0.0000
vn 0.0000 1.0000 0.0000
usemtl Cable
s off
f 38/1/1 24/2/1 17/3/1
f 22/4/2 7/5/2 3/6/2
f 16/7/3 25/8/3 36/9/3
f 39/10/4 1/11/4 5/12/4
f 7/13/5 13/14/5 3/15/5
f 4/16/6 35/17/6 8/18/6
f 19/19/2 16/20/2 18/21/2
f 9/22/2 15/23/2 10/24/2
f 38/25/5 37/26/5 40/27/5
f 29/28/5 1/29/5 15/30/5
f 18/31/6 22/32/6 19/33/6
f 17/34/5 30/35/5 16/36/5
f 37/37/4 2/38/4 40/39/4
f 21/40/2 8/41/2 30/42/2
f 27/43/6 6/44/6 28/45/6
f 23/46/4 34/47/4 24/48/4
f 32/49/6 39/50/6 31/51/6
f 38/52/4 31/53/4 36/54/4
f 10/55/5 11/56/5 9/57/5
f 26/58/2 28/45/2 25/59/2
f 24/60/6 25/61/6 23/62/6
f 12/63/4 14/64/4 11/65/4
f 15/66/1 1/67/1 10/68/1
f 1/67/1 33/69/1 32/70/1
f 10/68/1 1/67/1 32/70/1
f 38/1/1 40/71/1 2/72/1
f 10/68/1 32/70/1 38/1/1
f 3/73/1 13/74/1 12/75/1
f 12/75/1 10/68/1 38/1/1
f 38/1/1 2/72/1 26/76/1
f 2/72/1 27/77/1 26/76/1
f 3/73/1 12/75/1 19/78/1
f 19/78/1 22/79/1 3/73/1
f 4/80/1 21/81/1 17/3/1
f 19/78/1 12/75/1 38/1/1
f 34/82/1 4/80/1 24/2/1
f 17/3/1 19/78/1 38/1/1
f 38/1/1 26/76/1 24/2/1
f 24/2/1 4/80/1 17/3/1
f 22/4/2 20/83/2 7/5/2
f 14/84/3 7/85/3 11/86/3
f 7/85/3 20/87/3 18/88/3
f 11/86/3 7/85/3 18/88/3
f 16/7/3 30/89/3 8/90/3
f 11/86/3 18/88/3 16/7/3
f 5/91/3 29/92/3 9/93/3
f 9/93/3 11/86/3 16/7/3
f 16/7/3 8/90/3 23/94/3
f 8/90/3 35/95/3 23/94/3
f 5/91/3 9/93/3 31/96/3
f 31/96/3 39/97/3 5/91/3
f 6/98/3 37/99/3 36/9/3
f 31/96/3 9/93/3 16/7/3
f 28/100/3 6/98/3 25/8/3
f 36/9/3 31/96/3 16/7/3
f 16/7/3 23/94/3 25/8/3
f 25/8/3 6/98/3 36/9/3
f 39/10/4 33/101/4 1/11/4
f 7/13/5 14/102/5 13/14/5
f 4/16/6 34/47/6 35/17/6
f 19/19/2 17/103/2 16/20/2
f 9/22/2 29/104/2 15/23/2
f 38/25/5 36/105/5 37/26/5
f 29/28/5 5/106/5 1/29/5
f 18/31/6 20/107/6 22/32/6
f 17/34/5 21/108/5 30/35/5
f 37/37/4 6/109/4 2/38/4
f 21/40/2 4/110/2 8/41/2
f 27/43/6 2/38/6 6/44/6
f 23/46/4 35/17/4 34/47/4
f 32/49/6 33/101/6 39/50/6
f 38/52/4 32/111/4 31/53/4
f 10/55/5 12/112/5 11/56/5
f 26/58/2 27/43/2 28/45/2
f 24/60/6 26/113/6 25/61/6
f 12/63/4 13/114/4 14/64/4
