# Blender v2.79 (sub 0) OBJ File: 'Import Bus.blend'
# www.blender.org
mtllib import_bus.mtl
o Import_Bus_Cube
v 0.187500 -0.187500 0.062500
v 0.187500 0.250000 0.062500
v -0.250000 -0.187500 0.062500
v -0.250000 0.250000 0.062500
v 0.187500 -0.187500 0.000000
v 0.187500 0.250000 0.000000
v -0.250000 -0.187500 0.000000
v -0.250000 0.250000 0.000000
v -0.125000 0.125000 -0.125000
v -0.125000 -0.062500 -0.125000
v 0.062500 -0.062500 -0.125000
v 0.062500 0.125000 -0.125000
vt 0.281250 0.718750
vt 0.718750 0.281250
vt 0.718750 0.718750
vt 0.281250 0.281250
vt 0.718750 0.218750
vt 0.218750 0.718750
vt 0.093750 0.406250
vt 0.218750 0.281250
vt 0.281250 0.781250
vt 0.718750 0.781250
vt 0.781250 0.281250
vt 0.406250 0.093750
vt 0.593750 0.093750
vt 0.406250 0.906250
vt 0.906250 0.593750
vt 0.781250 0.718750
vt 0.218750 0.968750
vt 0.031250 0.781250
vt 0.218750 0.781250
vt 0.281250 0.218750
vt 0.093750 0.593750
vt 0.593750 0.906250
vt 0.906250 0.406250
vt 0.031250 0.968750
vn 0.0000 0.0000 1.0000
vn -1.0000 0.0000 0.0000
vn 0.0000 0.7071 -0.7071
vn 1.0000 0.0000 0.0000
vn 0.0000 -1.0000 0.0000
vn 0.0000 1.0000 0.0000
vn -0.7071 0.0000 -0.7071
vn 0.7071 0.0000 -0.7071
vn 0.0000 -0.7071 -0.7071
vn 0.0000 0.0000 -1.0000
usemtl Import_Bus
s off
f 2/1/1 3/2/1 1/3/1
f 4/4/2 7/5/2 3/2/2
f 6/6/3 9/7/3 8/8/3
f 6/9/4 1/3/4 5/10/4
f 7/11/5 1/3/5 3/2/5
f 4/4/6 6/6/6 8/8/6
f 7/5/7 9/12/7 10/13/7
f 5/10/8 12/14/8 6/9/8
f 7/11/9 11/15/9 5/16/9
f 9/17/10 11/18/10 10/19/10
f 2/1/1 4/4/1 3/2/1
f 4/4/2 8/20/2 7/5/2
f 6/6/3 12/21/3 9/7/3
f 6/9/4 2/1/4 1/3/4
f 7/11/5 5/16/5 1/3/5
f 4/4/6 2/1/6 6/6/6
f 7/5/7 8/20/7 9/12/7
f 5/10/8 11/22/8 12/14/8
f 7/11/9 10/23/9 11/15/9
f 9/17/10 12/24/10 11/18/10
