# Blender v2.79 (sub 0) OBJ File: 'Import Bus.blend'
# www.blender.org
mtllib import_bus.appliedenergistics3-_-data.mtl
o Data_Cube.001
v 0.031250 -0.031250 -0.093750
v 0.031250 0.093750 -0.093750
v -0.093750 -0.031250 -0.093750
v -0.093750 0.093750 -0.093750
v 0.031250 -0.031250 -0.156250
v 0.031250 0.093750 -0.156250
v -0.093750 -0.031250 -0.156250
v -0.093750 0.093750 -0.156250
vn -1.0000 0.0000 0.0000
vn 1.0000 0.0000 0.0000
vn 0.0000 -1.0000 0.0000
vn 0.0000 1.0000 0.0000
usemtl None
s off
f 4//1 7//1 3//1
f 6//2 1//2 5//2
f 7//3 1//3 3//3
f 4//4 6//4 8//4
f 4//1 8//1 7//1
f 6//2 2//2 1//2
f 7//3 5//3 1//3
f 4//4 2//4 6//4
