# Blender v2.79 (sub 0) OBJ File: 'Import Bus.blend'
# www.blender.org
g appliedenergistics3:data
v 0.031250 -0.031250 -0.093750
v 0.031250 0.093750 -0.093750
v -0.093750 -0.031250 -0.093750
v -0.093750 0.093750 -0.093750
v 0.031250 -0.031250 -0.156250
v 0.031250 0.093750 -0.156250
v -0.093750 -0.031250 -0.156250
v -0.093750 0.093750 -0.156250
vn -1.0000 0.0000 0.0000
vn 1.0000 0.0000 0.0000
vn 0.0000 -1.0000 0.0000
vn 0.0000 1.0000 0.0000
s off
f 4//1 7//1 3//1
f 6//2 1//2 5//2
f 7//3 1//3 3//3
f 4//4 6//4 8//4
f 4//1 8//1 7//1
f 6//2 2//2 1//2
f 7//3 5//3 1//3
f 4//4 2//4 6//4
g appliedenergistics3:energy
v 0.031250 0.031250 -0.093750
v 0.031250 0.031250 -0.156250
v -0.093750 0.031250 -0.093750
v -0.093750 0.031250 -0.156250
v -0.031250 -0.031250 -0.093750
v -0.031250 -0.031250 -0.156250
v -0.031250 0.093750 -0.093750
v -0.031250 0.093750 -0.156250
vn 0.0000 1.0000 0.0000
vn 1.0000 0.0000 0.0000
s off
f 10//5 11//5 9//5
f 14//6 15//6 13//6
f 10//5 12//5 11//5
f 14//6 16//6 15//6
