# Blender v2.79 (sub 0) OBJ File: 'Micro cable.blend'
# www.blender.org
o Energy_&_Data_Cube.001
v 0.046875 0.031250 0.031250
v 0.046875 0.031250 -0.093750
v 0.015625 0.031250 0.031250
v 0.015625 0.031250 -0.093750
v 0.093750 0.031250 -0.046875
v -0.031250 0.031250 -0.046875
v 0.093750 0.031250 -0.015625
v -0.031250 0.031250 -0.015625
v 0.031250 -0.031250 -0.046875
v 0.031250 0.093750 -0.046875
v 0.031250 -0.031250 -0.015625
v 0.031250 0.093750 -0.015625
vn 1.0000 0.0000 0.0000
vn 0.0000 1.0000 0.0000
s off
f 11//1 10//1 12//1
f 2//2 3//2 1//2
f 7//2 6//2 8//2
f 11//1 9//1 10//1
f 2//2 4//2 3//2
f 7//2 5//2 6//2
