# Blender v2.79 (sub 0) OBJ File: 'panel.blend'
# www.blender.org
g netstoragepi
v 0.031250 -0.031250 -0.031250
v 0.031250 0.093750 -0.031250
v -0.093750 -0.031250 -0.031250
v -0.093750 0.093750 -0.031250
v 0.031250 -0.031250 -0.093750
v 0.031250 0.093750 -0.093750
v -0.093750 -0.031250 -0.093750
v -0.093750 0.093750 -0.093750
v 0.093750 -0.093750 -0.031250
v 0.093750 0.156250 -0.031250
v -0.156250 -0.093750 -0.031250
v -0.156250 0.156250 -0.031250
v 0.093750 -0.093750 -0.093750
v 0.093750 0.156250 -0.093750
v -0.156250 -0.093750 -0.093750
v -0.156250 0.156250 -0.093750
v 0.156250 -0.156250 -0.031250
v 0.156250 0.218750 -0.031250
v -0.218750 -0.156250 -0.031250
v -0.218750 0.218750 -0.031250
v 0.156250 -0.156250 -0.093750
v 0.156250 0.218750 -0.093750
v -0.218750 -0.156250 -0.093750
v -0.218750 0.218750 -0.093750
v -0.031250 -0.156250 -0.031250
v -0.031250 0.218750 -0.031250
v -0.031250 -0.156250 -0.093750
v -0.031250 0.218750 -0.093750
v 0.156250 0.031250 -0.031250
v -0.218750 0.031250 -0.031250
v 0.156250 0.031250 -0.093750
v -0.218750 0.031250 -0.093750
vn 1.0000 0.0000 0.0000
vn -1.0000 0.0000 0.0000
vn 0.0000 -1.0000 0.0000
vn 0.0000 1.0000 0.0000
s off
f 14//1 9//1 13//1
f 4//2 7//2 3//2
f 12//2 15//2 11//2
f 6//1 1//1 5//1
f 7//3 1//3 3//3
f 4//4 6//4 8//4
f 15//3 9//3 11//3
f 12//4 14//4 16//4
f 20//2 23//2 19//2
f 22//1 17//1 21//1
f 23//3 17//3 19//3
f 20//4 22//4 24//4
f 26//2 27//2 25//2
f 30//4 31//4 32//4
f 14//1 10//1 9//1
f 4//2 8//2 7//2
f 12//2 16//2 15//2
f 6//1 2//1 1//1
f 7//3 5//3 1//3
f 4//4 2//4 6//4
f 15//3 13//3 9//3
f 12//4 10//4 14//4
f 20//2 24//2 23//2
f 22//1 18//1 17//1
f 23//3 21//3 17//3
f 20//4 18//4 22//4
f 26//2 28//2 27//2
f 30//4 29//4 31//4
