# Blender v2.79 (sub 0) OBJ File: 'Export Bus.blend'
# www.blender.org
mtllib export_bus.mtl
o Export_Bus_Cube
v -0.250000 0.250000 -0.125000
v -0.250000 -0.187500 -0.125000
v 0.187500 0.250000 -0.125000
v 0.187500 -0.187500 -0.125000
v -0.250000 0.250000 -0.062500
v -0.250000 -0.187500 -0.062500
v 0.187500 0.250000 -0.062500
v 0.187500 -0.187500 -0.062500
v 0.062500 -0.062500 0.062500
v 0.062500 0.125000 0.062500
v -0.125000 0.125000 0.062500
v -0.125000 -0.062500 0.062500
vt 0.718750 0.281250
vt 0.281250 0.718750
vt 0.718750 0.718750
vt 0.718750 0.218750
vt 0.281250 0.281250
vt 0.093750 0.406250
vt 0.218750 0.718750
vt 0.218750 0.281250
vt 0.281250 0.781250
vt 0.718750 0.781250
vt 0.781250 0.281250
vt 0.593750 0.093750
vt 0.281250 0.218750
vt 0.406250 0.906250
vt 0.906250 0.593750
vt 0.781250 0.718750
vt 0.031250 0.781250
vt 0.218750 0.968750
vt 0.218750 0.781250
vt 0.093750 0.593750
vt 0.406250 0.093750
vt 0.593750 0.906250
vt 0.906250 0.406250
vt 0.031250 0.968750
vn 0.0000 0.0000 -1.0000
vn 1.0000 0.0000 0.0000
vn 0.0000 -0.7071 0.7071
vn -1.0000 0.0000 0.0000
vn 0.0000 1.0000 0.0000
vn 0.0000 -1.0000 0.0000
vn 0.7071 0.0000 0.7071
vn -0.7071 0.0000 0.7071
vn 0.0000 0.7071 0.7071
vn 0.0000 0.0000 1.0000
usemtl Export_Bus
s off
f 3/1/1 2/2/1 1/3/1
f 7/4/2 4/5/2 3/1/2
f 9/6/3 6/7/3 8/8/3
f 1/3/4 6/9/4 5/10/4
f 1/3/5 7/11/5 3/1/5
f 6/7/6 4/5/6 8/8/6
f 10/12/7 8/13/7 7/4/7
f 12/14/8 5/10/8 6/9/8
f 11/15/9 7/11/9 5/16/9
f 11/17/10 9/18/10 10/19/10
f 3/1/1 4/5/1 2/2/1
f 7/4/2 8/13/2 4/5/2
f 9/6/3 12/20/3 6/7/3
f 1/3/4 2/2/4 6/9/4
f 1/3/5 5/16/5 7/11/5
f 6/7/6 2/2/6 4/5/6
f 10/12/7 9/21/7 8/13/7
f 12/14/8 11/22/8 5/10/8
f 11/15/9 10/23/9 7/11/9
f 11/17/10 12/24/10 9/18/10
