# Blender v2.79 (sub 0) OBJ File: 'Cable Joint.blend'
# www.blender.org
v 0.054688 0.054688 -0.015625
v 0.054688 0.007813 -0.015625
v 0.007813 0.054688 -0.015625
v 0.007813 0.007813 -0.015625
v 0.054688 0.054688 -0.109375
v 0.054688 0.007813 -0.109375
v 0.007813 0.054688 -0.109375
v 0.007813 0.007813 -0.109375
v 0.007813 0.078125 0.054687
v 0.054688 0.171875 0.054688
v 0.007813 -0.109375 0.054687
v -0.015625 0.054688 0.007813
v -0.015625 0.007813 0.007813
v -0.015625 0.054688 0.054687
v -0.015625 0.007813 0.054687
v -0.109375 0.054688 0.007813
v -0.109375 0.007813 0.007813
v -0.109375 0.054688 0.054688
v -0.109375 0.007813 0.054688
v 0.054687 0.078125 0.007812
v 0.054687 0.078125 0.054687
v 0.007812 0.171875 0.007813
v 0.007813 0.171875 0.054687
v 0.054687 -0.109375 0.007812
v 0.054687 -0.109375 0.054687
v 0.007812 -0.015625 0.007813
v 0.054688 -0.015625 0.054687
v 0.007813 -0.015625 0.054687
v 0.007813 0.054688 0.078125
v 0.007813 0.007813 0.078125
v 0.054688 0.054688 0.078125
v 0.054688 0.007813 0.078125
v 0.007813 0.054688 0.171875
v 0.007813 0.007813 0.171875
v 0.054688 0.054688 0.171875
v 0.054688 0.007813 0.171875
v 0.007812 0.078125 0.007813
v 0.054687 0.171875 0.007812
v 0.007812 -0.109375 0.007813
v 0.054687 -0.015625 0.007812
v 0.078125 0.054688 0.054687
v 0.078125 0.007813 0.054687
v 0.078125 0.054688 0.007812
v 0.078125 0.007813 0.007812
v 0.171875 0.054688 0.054687
v 0.171875 0.007813 0.054687
v 0.171875 0.054688 0.007812
v 0.171875 0.007813 0.007812
vn 0.0000 1.0000 0.0000
vn 0.0000 -1.0000 0.0000
vn -1.0000 0.0000 0.0000
vn 0.0000 0.0000 1.0000
vn 1.0000 0.0000 0.0000
vn 0.0000 0.0000 -1.0000
s off
f 5//1 3//1 1//1
f 2//2 8//2 6//2
f 3//3 8//3 4//3
f 1//4 4//4 2//4
f 5//5 2//5 6//5
f 7//6 6//6 8//6
f 10//4 9//4 21//4
f 20//6 22//6 38//6
f 37//3 23//3 22//3
f 21//2 37//2 20//2
f 10//5 20//5 38//5
f 23//1 38//1 22//1
f 27//4 11//4 25//4
f 24//6 26//6 40//6
f 39//3 28//3 26//3
f 25//2 39//2 24//2
f 27//5 24//5 40//5
f 26//1 27//1 40//1
f 16//1 14//1 12//1
f 13//2 19//2 17//2
f 14//4 19//4 15//4
f 12//5 15//5 13//5
f 16//6 13//6 17//6
f 18//3 17//3 19//3
f 33//1 31//1 29//1
f 30//2 36//2 34//2
f 31//5 36//5 32//5
f 29//6 32//6 30//6
f 33//3 30//3 34//3
f 35//4 34//4 36//4
f 45//1 43//1 41//1
f 42//2 48//2 46//2
f 43//6 48//6 44//6
f 41//3 44//3 42//3
f 45//4 42//4 46//4
f 47//5 46//5 48//5
f 5//1 7//1 3//1
f 2//2 4//2 8//2
f 3//3 7//3 8//3
f 1//4 3//4 4//4
f 5//5 1//5 2//5
f 7//6 5//6 6//6
f 10//4 23//4 9//4
f 20//6 37//6 22//6
f 37//3 9//3 23//3
f 21//2 9//2 37//2
f 10//5 21//5 20//5
f 23//1 10//1 38//1
f 27//4 28//4 11//4
f 24//6 39//6 26//6
f 39//3 11//3 28//3
f 25//2 11//2 39//2
f 27//5 25//5 24//5
f 26//1 28//1 27//1
f 16//1 18//1 14//1
f 13//2 15//2 19//2
f 14//4 18//4 19//4
f 12//5 14//5 15//5
f 16//6 12//6 13//6
f 18//3 16//3 17//3
f 33//1 35//1 31//1
f 30//2 32//2 36//2
f 31//5 35//5 36//5
f 29//6 31//6 32//6
f 33//3 29//3 30//3
f 35//4 33//4 34//4
f 45//1 47//1 43//1
f 42//2 44//2 48//2
f 43//6 47//6 48//6
f 41//3 43//3 44//3
f 45//4 41//4 42//4
f 47//5 45//5 46//5
