# Blender v2.79 (sub 0) OBJ File: 'Cable.blend'
# www.blender.org
g appliedenergistics3:energy
v 0.015625 0.031250 -0.031250
v 0.015625 0.031250 0.093750
v 0.046875 0.031250 -0.031250
v 0.046875 0.031250 0.093750
vn 0.0000 -1.0000 0.0000
s off
f 3//1 2//1 1//1
f 3//1 4//1 2//1
g appliedenergistics3:data
v -0.043750 -0.043750 -0.031250
v -0.043750 0.106250 -0.031250
v 0.106250 -0.043750 -0.031250
v 0.106250 0.106250 -0.031250
v -0.043750 -0.043750 0.093750
v -0.043750 0.106250 0.093750
v 0.106250 -0.043750 0.093750
v 0.106250 0.106250 0.093750
vn 1.0000 0.0000 0.0000
vn -1.0000 0.0000 0.0000
vn 0.0000 -1.0000 0.0000
vn 0.0000 1.0000 0.0000
s off
f 8//2 11//2 7//2
f 10//3 5//3 9//3
f 11//4 5//4 7//4
f 8//5 10//5 12//5
f 8//2 12//2 11//2
f 10//3 6//3 5//3
f 11//4 9//4 5//4
f 8//5 6//5 10//5
