# Blender v2.79 (sub 0) OBJ File: 'Cable.blend'
# www.blender.org
mtllib nocolor.mtl
o Cable_Cube.006
v -0.062500 -0.062500 -0.000000
v -0.062500 0.125000 -0.000000
v 0.125000 -0.062500 -0.000000
v 0.125000 0.125000 -0.000000
v -0.062500 -0.062500 0.062500
v -0.062500 0.125000 0.062500
v 0.125000 -0.062500 0.062500
v 0.125000 0.125000 0.062500
v -0.015625 -0.039062 0.062500
v -0.015625 -0.039062 -0.000000
v 0.078125 -0.039062 0.062500
v 0.078125 -0.039062 -0.000000
v 0.078125 -0.062500 -0.000000
v 0.078125 -0.062500 0.062500
v -0.015625 -0.062500 -0.000000
v 0.101562 0.078125 0.062500
v 0.101562 0.078125 0.000000
v 0.101562 -0.015625 0.062500
v 0.101562 -0.015625 0.000000
v 0.125000 -0.015625 0.062500
v 0.125000 0.078125 -0.000000
v 0.125000 -0.015625 -0.000000
v 0.078125 0.101563 0.062500
v 0.078125 0.101563 0.000000
v -0.015625 0.101562 0.062500
v -0.015625 0.101562 0.000000
v -0.015625 0.125000 -0.000000
v -0.015625 0.125000 0.062500
v -0.015625 -0.062500 0.062500
v 0.125000 0.078125 0.062500
v -0.039062 -0.015625 0.062500
v -0.039062 -0.015625 0.000000
v -0.062500 -0.015625 -0.000000
v 0.078125 0.125000 -0.000000
v 0.078125 0.125000 0.062500
v -0.039063 0.078125 0.062500
v -0.062500 0.078125 0.062500
v -0.039063 0.078125 0.000000
v -0.062500 -0.015625 0.062500
v -0.062500 0.078125 -0.000000
vt 0.625000 0.312500
vt 0.687500 0.625000
vt 0.625000 0.687500
vt 0.937500 0.312500
vt 0.812500 0.187500
vt 0.937500 0.187500
vt 0.687500 0.625000
vt 0.375000 0.687500
vt 0.312500 0.375000
vt 0.187500 0.312500
vt 0.062500 0.187500
vt 0.187500 0.187500
vt 0.687500 0.062500
vt 0.812500 0.062500
vt 0.812500 0.937500
vt 0.687500 0.812500
vt 0.812500 0.812500
vt 0.812500 0.625000
vt 0.937500 0.375000
vt 0.937500 0.625000
vt 0.312500 0.062500
vt 0.375000 0.187500
vt 0.312500 0.187500
vt 0.062500 0.625000
vt 0.187500 0.687500
vt 0.062500 0.687500
vt 0.312500 0.187500
vt 0.187500 0.062500
vt 0.312500 0.062500
vt 0.937500 0.312500
vt 0.812500 0.375000
vt 0.812500 0.312500
vt 0.812500 0.687500
vt 0.937500 0.625000
vt 0.937500 0.687500
vt 0.062500 0.812500
vt 0.937500 0.687500
vt 0.812500 0.687500
vt 0.312500 0.937500
vt 0.187500 0.812500
vt 0.312500 0.812500
vt 0.625000 0.812500
vt 0.687500 0.937500
vt 0.625000 0.937500
vt 0.062500 0.375000
vt 0.187500 0.375000
vt 0.187500 0.625000
vt 0.375000 0.062500
vt 0.625000 0.187500
vt 0.375000 0.187500
vt 0.375000 0.937500
vt 0.375000 0.812500
vt 0.687500 0.187500
vt 0.625000 0.062500
vt 0.687500 0.062500
vt 0.250000 0.375000
vt 0.250000 0.250000
vt 0.312500 0.375000
vt 0.375000 0.250000
vt 0.375000 0.312500
vt 0.625000 0.250000
vt 0.750000 0.250000
vt 0.250000 0.750000
vt 0.250000 0.625000
vt 0.312500 0.625000
vt 0.687500 0.375000
vt 0.750000 0.375000
vt 0.375000 0.687500
vt 0.375000 0.750000
vt 0.750000 0.750000
vt 0.625000 0.750000
vt 0.750000 0.625000
vt 0.812500 0.312500
vt 0.625000 0.250000
vt 0.750000 0.250000
vt 0.625000 0.312500
vt 0.750000 0.375000
vt 0.687500 0.375000
vt 0.750000 0.625000
vt 0.750000 0.750000
vt 0.250000 0.250000
vt 0.375000 0.250000
vt 0.375000 0.312500
vt 0.625000 0.687500
vt 0.625000 0.750000
vt 0.250000 0.375000
vt 0.250000 0.750000
vt 0.250000 0.625000
vt 0.312500 0.625000
vt 0.375000 0.750000
vt 0.062500 0.312500
vt 0.687500 0.187500
vt 0.812500 0.375000
vt 0.375000 0.062500
vt 0.937500 0.375000
vt 0.812500 0.625000
vt 0.937500 0.812500
vt 0.187500 0.937500
vt 0.625000 0.062500
vt 0.625000 0.187500
vn 0.0000 0.0000 -1.0000
vn 1.0000 0.0000 0.0000
vn 0.0000 -0.0000 1.0000
vn -1.0000 0.0000 0.0000
vn 0.0000 -1.0000 0.0000
vn 0.0000 1.0000 0.0000
usemtl Cable
s off
s off
f 38/1/1 24/2/1 17/3/1
f 22/4/2 7/5/2 3/6/2
f 16/7/3 25/8/3 31/9/3
f 39/10/4 1/11/4 5/12/4
f 7/5/5 13/13/5 3/14/5
f 4/15/6 35/16/6 8/17/6
f 19/18/2 16/19/2 18/20/2
f 9/21/2 15/22/2 10/23/2
f 38/24/5 37/25/5 40/26/5
f 29/27/5 1/28/5 15/29/5
f 18/30/6 22/31/6 19/32/6
f 17/33/5 30/34/5 16/35/5
f 37/25/4 2/36/4 40/26/4
f 21/37/2 8/17/2 30/38/2
f 27/39/6 6/40/6 28/41/6
f 23/42/4 34/43/4 24/44/4
f 32/45/6 39/10/6 31/46/6
f 38/24/4 31/46/4 36/47/4
f 10/48/5 11/49/5 9/50/5
f 26/51/2 28/41/2 25/52/2
f 24/44/6 25/52/6 23/42/6
f 12/53/4 14/54/4 11/55/4
f 15/56/1 1/57/1 10/58/1
f 1/57/1 33/59/1 32/60/1
f 10/58/1 1/57/1 32/60/1
f 38/1/1 40/61/1 2/62/1
f 10/58/1 32/60/1 38/1/1
f 3/63/1 13/64/1 12/65/1
f 12/65/1 10/58/1 38/1/1
f 38/1/1 2/62/1 26/66/1
f 2/62/1 27/67/1 26/66/1
f 3/63/1 12/65/1 19/68/1
f 19/68/1 22/69/1 3/63/1
f 4/70/1 21/71/1 17/3/1
f 19/68/1 12/65/1 38/1/1
f 34/72/1 4/70/1 24/2/1
f 17/3/1 19/68/1 38/1/1
f 38/1/1 26/66/1 24/2/1
f 24/2/1 4/70/1 17/3/1
f 22/4/2 20/73/2 7/5/2
f 14/74/3 7/75/3 11/76/3
f 7/75/3 20/77/3 18/78/3
f 11/76/3 7/75/3 18/78/3
f 16/7/3 30/79/3 8/80/3
f 11/76/3 18/78/3 16/7/3
f 5/81/3 29/82/3 9/83/3
f 9/83/3 11/76/3 16/7/3
f 16/7/3 8/80/3 23/84/3
f 8/80/3 35/85/3 23/84/3
f 5/81/3 9/83/3 31/9/3
f 31/9/3 39/86/3 5/81/3
f 6/87/3 37/88/3 36/89/3
f 31/9/3 9/83/3 16/7/3
f 28/90/3 6/87/3 25/8/3
f 36/89/3 31/9/3 25/8/3
f 16/7/3 23/84/3 25/8/3
f 25/8/3 6/87/3 36/89/3
f 39/10/4 33/91/4 1/11/4
f 7/5/5 14/92/5 13/13/5
f 4/15/6 34/43/6 35/16/6
f 19/18/2 17/93/2 16/19/2
f 9/21/2 29/94/2 15/22/2
f 38/24/5 36/47/5 37/25/5
f 29/27/5 5/12/5 1/28/5
f 18/30/6 20/95/6 22/31/6
f 17/33/5 21/96/5 30/34/5
f 37/25/4 6/40/4 2/36/4
f 21/37/2 4/97/2 8/17/2
f 27/39/6 2/98/6 6/40/6
f 23/42/4 35/16/4 34/43/4
f 32/45/6 33/91/6 39/10/6
f 38/24/4 32/45/4 31/46/4
f 10/48/5 12/99/5 11/49/5
f 26/51/2 27/39/2 28/41/2
f 24/44/6 26/51/6 25/52/6
f 12/53/4 13/100/4 14/54/4
