# Blender v2.79 (sub 0) OBJ File: 'Cable Joint.blend'
# www.blender.org
mtllib nocolor_joint.mtl
o Cable_Cube
v -0.015625 -0.015625 -0.015625
v -0.015625 -0.015625 0.078125
v -0.015625 0.078125 0.078125
v 0.078125 -0.015625 -0.015625
v 0.078125 -0.015625 0.078125
v 0.078125 0.078125 0.078125
v 0.078125 0.078125 -0.015625
v -0.015625 0.078125 -0.015625
v -0.062500 -0.062500 -0.062500
v -0.062500 0.125000 -0.062500
v 0.125000 -0.062500 -0.062500
v 0.125000 0.125000 -0.062500
v -0.062500 -0.062500 0.125000
v -0.062500 0.125000 0.125000
v 0.125000 -0.062500 0.125000
v 0.125000 0.125000 0.125000
v -0.015625 0.125000 0.125000
v -0.062500 0.125000 -0.015625
v -0.015625 0.125000 -0.015625
v -0.062500 0.078125 -0.015625
v -0.015625 0.125000 -0.062500
v -0.015625 0.078125 -0.062500
v -0.015625 0.078125 0.125000
v -0.015625 0.125000 0.078125
v -0.062500 0.125000 0.078125
v -0.062500 0.078125 0.078125
v -0.062500 0.078125 -0.062500
v 0.078125 0.078125 -0.062500
v -0.015625 -0.015625 -0.062500
v -0.062500 -0.015625 -0.015625
v -0.062500 0.078125 0.125000
v -0.015625 -0.015625 0.125000
v -0.062500 -0.015625 0.078125
v 0.078125 -0.015625 -0.062500
v -0.062500 -0.015625 0.125000
v -0.015625 -0.062500 0.125000
v -0.015625 -0.062500 -0.015625
v -0.015625 -0.062500 0.078125
v 0.078125 -0.062500 -0.015625
v -0.062500 -0.062500 -0.015625
v -0.015625 -0.062500 -0.062500
v -0.062500 -0.015625 -0.062500
v -0.062500 -0.062500 0.078125
v 0.078125 0.125000 -0.062500
v 0.078125 0.125000 -0.015625
v 0.078125 0.125000 0.125000
v 0.078125 0.125000 0.078125
v 0.078125 0.078125 0.125000
v 0.078125 -0.062500 0.078125
v 0.078125 -0.062500 -0.062500
v 0.078125 -0.015625 0.125000
v 0.078125 -0.062500 0.125000
v 0.125000 0.078125 -0.062500
v 0.125000 -0.015625 -0.015625
v 0.125000 -0.062500 -0.015625
v 0.125000 -0.015625 0.078125
v 0.125000 0.125000 0.078125
v 0.125000 0.125000 -0.015625
v 0.125000 0.078125 0.078125
v 0.125000 0.078125 0.125000
v 0.125000 -0.062500 0.078125
v 0.125000 -0.015625 -0.062500
v 0.125000 0.078125 -0.015625
v 0.125000 -0.015625 0.125000
vt 0.375000 0.250000
vt 0.625000 0.375000
vt 0.375000 0.375000
vt 0.375000 0.375000
vt 0.250000 0.625000
vt 0.250000 0.375000
vt 0.750000 0.625000
vt 0.875000 0.750000
vt 0.750000 0.750000
vt 0.625000 0.625000
vt 0.750000 0.375000
vt 0.750000 0.625000
vt 0.625000 0.250000
vt 0.375000 0.375000
vt 0.375000 0.250000
vt 0.625000 0.875000
vt 0.625000 0.750000
vt 0.375000 0.625000
vt 0.625000 0.750000
vt 0.375000 0.750000
vt 0.375000 0.875000
vt 0.250000 0.750000
vt 0.625000 0.625000
vt 0.750000 0.375000
vt 0.750000 0.625000
vt 0.250000 0.375000
vt 0.375000 0.625000
vt 0.250000 0.625000
vt 0.750000 0.250000
vt 0.875000 0.375000
vt 0.750000 0.625000
vt 0.625000 0.375000
vt 0.375000 0.750000
vt 0.625000 0.750000
vt 0.375000 0.750000
vt 0.625000 0.625000
vt 0.625000 0.750000
vt 0.250000 0.250000
vt 0.375000 0.125000
vt 0.625000 0.250000
vt 0.375000 0.375000
vt 0.375000 0.250000
vt 0.750000 0.750000
vt 0.625000 0.875000
vt 0.625000 0.625000
vt 0.375000 0.750000
vt 0.375000 0.625000
vt 0.125000 0.750000
vt 0.250000 0.875000
vt 0.125000 0.875000
vt 0.250000 0.125000
vt 0.125000 0.250000
vt 0.125000 0.125000
vt 0.875000 0.250000
vt 0.750000 0.125000
vt 0.875000 0.125000
vt 0.875000 0.250000
vt 0.750000 0.125000
vt 0.875000 0.125000
vt 0.125000 0.750000
vt 0.250000 0.875000
vt 0.125000 0.875000
vt 0.875000 0.125000
vt 0.750000 0.250000
vt 0.750000 0.125000
vt 0.875000 0.750000
vt 0.750000 0.750000
vt 0.250000 0.125000
vt 0.125000 0.250000
vt 0.125000 0.125000
vt 0.125000 0.750000
vt 0.250000 0.875000
vt 0.125000 0.875000
vt 0.875000 0.875000
vt 0.750000 0.875000
vt 0.625000 0.375000
vt 0.375000 0.625000
vt 0.375000 0.375000
vt 0.250000 0.125000
vt 0.125000 0.250000
vt 0.125000 0.125000
vt 0.250000 0.750000
vt 0.125000 0.875000
vt 0.125000 0.750000
vt 0.875000 0.750000
vt 0.750000 0.875000
vt 0.750000 0.750000
vt 0.625000 0.375000
vt 0.375000 0.625000
vt 0.375000 0.375000
vt 0.250000 0.375000
vt 0.250000 0.250000
vt 0.250000 0.625000
vt 0.375000 0.375000
vt 0.375000 0.625000
vt 0.750000 0.375000
vt 0.625000 0.625000
vt 0.750000 0.375000
vt 0.625000 0.625000
vt 0.625000 0.375000
vt 0.625000 0.750000
vt 0.375000 0.625000
vt 0.625000 0.625000
vt 0.750000 0.375000
vt 0.625000 0.625000
vt 0.625000 0.375000
vt 0.250000 0.125000
vt 0.125000 0.250000
vt 0.125000 0.125000
vt 0.250000 0.750000
vt 0.125000 0.750000
vt 0.875000 0.875000
vt 0.750000 0.875000
vt 0.375000 0.625000
vt 0.375000 0.375000
vt 0.375000 0.250000
vt 0.625000 0.375000
vt 0.250000 0.625000
vt 0.125000 0.625000
vt 0.250000 0.375000
vt 0.250000 0.250000
vt 0.875000 0.750000
vt 0.750000 0.750000
vt 0.750000 0.875000
vt 0.875000 0.875000
vt 0.750000 0.250000
vt 0.875000 0.125000
vt 0.875000 0.250000
vt 0.125000 0.125000
vt 0.250000 0.125000
vt 0.375000 0.750000
vt 0.250000 0.750000
vt 0.875000 0.375000
vt 0.625000 0.875000
vt 0.250000 0.875000
vt 0.625000 0.250000
vt 0.750000 0.125000
vt 0.625000 0.250000
vt 0.750000 0.250000
vt 0.625000 0.375000
vt 0.125000 0.875000
vt 0.125000 0.750000
vt 0.750000 0.875000
vt 0.875000 0.250000
vt 0.625000 0.625000
vt 0.375000 0.375000
vt 0.375000 0.125000
vt 0.875000 0.375000
vt 0.625000 0.875000
vt 0.250000 0.625000
vt 0.125000 0.625000
vt 0.375000 0.375000
vt 0.625000 0.375000
vt 0.375000 0.375000
vt 0.750000 0.750000
vt 0.875000 0.875000
vt 0.750000 0.875000
vt 0.875000 0.250000
vt 0.750000 0.125000
vt 0.250000 0.250000
vt 0.125000 0.125000
vt 0.250000 0.125000
vt 0.375000 0.375000
vt 0.625000 0.250000
vt 0.750000 0.250000
vt 0.375000 0.250000
vt 0.375000 0.125000
vt 0.375000 0.250000
vt 0.625000 0.375000
vt 0.375000 0.375000
vt 0.250000 0.750000
vt 0.375000 0.625000
vt 0.875000 0.625000
vt 0.625000 0.375000
vt 0.625000 0.375000
vt 0.250000 0.875000
vt 0.375000 0.375000
vt 0.375000 0.625000
vt 0.625000 0.375000
vt 0.625000 0.750000
vt 0.250000 0.750000
vt 0.875000 0.250000
vt 0.875000 0.625000
vt 0.250000 0.250000
vt 0.875000 0.750000
vt 0.625000 0.625000
vt 0.250000 0.250000
vt 0.250000 0.875000
vt 0.875000 0.875000
vt 0.625000 0.625000
vt 0.125000 0.375000
vt 0.250000 0.375000
vt 0.750000 0.625000
vt 0.750000 0.625000
vt 0.125000 0.375000
vt 0.875000 0.625000
vt 0.125000 0.250000
vt 0.375000 0.875000
vt 0.375000 0.875000
vt 0.625000 0.125000
vt 0.625000 0.125000
vt 0.750000 0.125000
vt 0.625000 0.250000
vt 0.875000 0.750000
vt 0.750000 0.250000
vt 0.125000 0.250000
vt 0.625000 0.125000
vt 0.375000 0.875000
vn 0.0000 -1.0000 0.0000
vn -1.0000 0.0000 0.0000
vn -0.0000 0.0000 -1.0000
vn 0.0000 0.0000 1.0000
vn 0.0000 1.0000 0.0000
vn 1.0000 0.0000 -0.0000
usemtl Cable
s off
f 1/1/1 33/2/1 30/3/1
f 32/4/2 3/5/2 2/6/2
f 3/7/1 31/8/1 26/9/1
f 30/10/3 8/11/3 1/12/3
f 3/13/2 19/14/2 8/15/2
f 26/9/3 24/16/3 3/17/3
f 56/18/4 6/19/4 5/20/4
f 51/21/5 56/22/5 5/20/5
f 34/23/6 7/24/6 4/25/6
f 7/26/6 47/27/6 6/28/6
f 63/29/4 45/30/4 7/24/4
f 6/31/5 63/32/5 7/24/5
f 1/33/1 34/23/1 4/34/1
f 8/35/3 45/36/3 7/37/3
f 22/38/6 19/39/6 8/15/6
f 6/40/4 24/41/4 3/42/4
f 48/43/2 47/44/2 6/19/2
f 3/45/5 48/46/5 6/47/5
f 42/48/3 41/49/3 9/50/3
f 62/51/6 55/52/6 11/53/6
f 64/54/4 52/55/4 15/56/4
f 35/57/2 43/58/2 13/59/2
f 55/60/1 50/61/1 11/62/1
f 57/63/5 46/64/5 16/65/5
f 4/25/5 62/66/5 34/67/5
f 36/68/4 35/69/4 13/70/4
f 31/71/4 17/72/4 14/73/4
f 48/43/4 16/74/4 46/75/4
f 23/76/4 51/77/4 48/78/4
f 24/79/5 14/80/5 17/81/5
f 19/82/5 10/83/5 18/84/5
f 45/85/5 12/86/5 44/87/5
f 45/88/5 24/89/5 47/90/5
f 4/91/4 55/52/4 54/92/4
f 1/93/2 22/94/2 29/95/2
f 2/96/4 26/97/4 33/2/4
f 3/98/5 20/99/5 26/100/5
f 2/101/2 37/102/2 38/103/2
f 4/104/6 49/105/6 39/106/6
f 40/107/2 42/108/2 9/109/2
f 20/110/2 10/83/2 27/111/2
f 26/9/2 14/112/2 25/113/2
f 26/100/2 30/114/2 33/115/2
f 2/116/1 51/117/1 32/4/1
f 8/118/1 27/111/1 22/119/1
f 1/120/5 42/108/5 30/121/5
f 6/31/3 57/122/3 59/123/3
f 50/124/3 62/66/3 11/125/3
f 28/126/3 12/127/3 53/128/3
f 22/38/3 10/129/3 21/130/3
f 22/94/3 34/23/3 29/95/3
f 3/131/6 17/72/6 23/132/6
f 7/24/1 53/128/1 63/133/1
f 4/34/2 50/124/2 39/134/2
f 8/35/4 18/135/4 20/110/4
f 7/136/2 44/137/2 28/126/2
f 5/138/2 52/55/2 51/139/2
f 22/94/5 7/136/5 28/140/5
f 56/22/6 15/141/6 61/142/6
f 59/123/6 16/74/6 60/143/6
f 63/29/6 12/127/6 58/144/6
f 59/145/6 54/146/6 63/32/6
f 1/1/4 40/107/4 37/147/4
f 2/96/5 35/57/5 32/148/5
f 6/19/1 60/143/1 48/149/1
f 5/150/1 54/146/1 56/18/1
f 5/150/3 61/142/3 49/151/3
f 5/138/4 38/152/4 49/153/4
f 1/1/3 39/106/3 37/154/3
f 37/155/1 9/156/1 41/157/1
f 43/158/1 36/159/1 13/59/1
f 49/160/1 15/161/1 52/162/1
f 49/153/1 37/102/1 39/163/1
f 2/164/3 43/58/3 33/165/3
f 4/166/3 63/32/3 54/146/3
f 2/116/6 36/68/6 38/167/6
f 5/168/6 48/169/6 51/170/6
f 1/33/6 41/49/6 29/171/6
f 1/1/1 2/164/1 33/2/1
f 32/4/2 23/172/2 3/5/2
f 3/7/1 23/173/1 31/8/1
f 30/10/3 20/174/3 8/11/3
f 3/13/2 24/175/2 19/14/2
f 26/9/3 25/113/3 24/16/3
f 56/18/4 59/145/4 6/19/4
f 51/21/5 64/176/5 56/22/5
f 34/23/6 28/140/6 7/24/6
f 7/26/6 45/177/6 47/27/6
f 63/29/4 58/144/4 45/30/4
f 6/31/5 59/145/5 63/32/5
f 1/33/1 29/95/1 34/23/1
f 8/35/3 19/178/3 45/36/3
f 22/38/6 21/130/6 19/39/6
f 6/40/4 47/179/4 24/41/4
f 48/43/2 46/75/2 47/44/2
f 3/45/5 23/180/5 48/46/5
f 42/48/3 29/171/3 41/49/3
f 62/51/6 54/92/6 55/52/6
f 64/54/4 51/139/4 52/55/4
f 35/57/2 33/165/2 43/58/2
f 55/60/1 39/181/1 50/61/1
f 57/63/5 47/182/5 46/64/5
f 4/25/5 54/183/5 62/66/5
f 36/68/4 32/184/4 35/69/4
f 31/71/4 23/132/4 17/72/4
f 48/43/4 60/185/4 16/74/4
f 23/76/4 32/186/4 51/77/4
f 24/79/5 25/187/5 14/80/5
f 19/82/5 21/188/5 10/83/5
f 45/85/5 58/189/5 12/86/5
f 45/88/5 19/190/5 24/89/5
f 4/91/4 39/191/4 55/52/4
f 1/93/2 8/192/2 22/94/2
f 2/96/4 3/7/4 26/97/4
f 3/98/5 8/193/5 20/99/5
f 2/101/2 1/33/2 37/102/2
f 4/104/6 5/194/6 49/105/6
f 40/107/2 30/121/2 42/108/2
f 20/110/2 18/135/2 10/83/2
f 26/9/2 31/8/2 14/112/2
f 26/100/2 20/99/2 30/114/2
f 2/116/1 5/138/1 51/117/1
f 8/118/1 20/110/1 27/111/1
f 1/120/5 29/195/5 42/108/5
f 6/31/3 47/196/3 57/122/3
f 50/124/3 34/67/3 62/66/3
f 28/126/3 44/137/3 12/127/3
f 22/38/3 27/197/3 10/129/3
f 22/94/3 28/140/3 34/23/3
f 3/131/6 24/198/6 17/72/6
f 7/24/1 28/126/1 53/128/1
f 4/34/2 34/67/2 50/124/2
f 8/35/4 19/199/4 18/135/4
f 7/136/2 45/200/2 44/137/2
f 5/138/2 49/201/2 52/55/2
f 22/94/5 8/15/5 7/136/5
f 56/22/6 64/176/6 15/141/6
f 59/123/6 57/122/6 16/74/6
f 63/29/6 53/202/6 12/127/6
f 59/145/6 56/18/6 54/146/6
f 1/1/4 30/121/4 40/107/4
f 2/96/5 33/165/5 35/57/5
f 6/19/1 59/123/1 60/143/1
f 5/150/1 4/91/1 54/146/1
f 5/150/3 56/22/3 61/142/3
f 5/138/4 2/116/4 38/152/4
f 1/1/3 4/203/3 39/106/3
f 37/155/1 40/204/1 9/156/1
f 43/158/1 38/205/1 36/159/1
f 49/160/1 61/206/1 15/161/1
f 49/153/1 38/103/1 37/102/1
f 2/164/3 38/207/3 43/58/3
f 4/166/3 7/136/3 63/32/3
f 2/116/6 32/184/6 36/68/6
f 5/168/6 6/40/6 48/169/6
f 1/33/6 37/208/6 41/49/6
